<?xml version="1.0" encoding="UTF-8"?><svg xmlns="http://www.w3.org/2000/svg" xmlns:xlink="http://www.w3.org/1999/xlink" viewBox="0 0 50 50" version="1.1"><path d="M24 1v2.094a6.013 6.013 0 0 0-3.5 1.953C20.387 5.03 20.246 5 20 5c-3.3 0-6 2.7-6 6 0 .746.309 1.402.71 1.871.403.469.888.777 1.337 1.004.16.082.312.145.469.203.062.336.289.613.601.742.313.125.672.086.95-.105 0 0 2.453-1.715 6.933-1.715s6.934 1.715 6.934 1.715a.993.993 0 0 0 .949.105.995.995 0 0 0 .605-.742c.153-.058.305-.121.465-.203.45-.227.934-.535 1.336-1.004S36 11.746 36 11c0-3.3-2.7-6-6-6-.246 0-.387.031-.5.047A6.013 6.013 0 0 0 26 3.094V1zm1 4c2.219 0 4 1.781 4 4 0 .867-.29 1.648-.762 2.3-.957-.179-2.039-.3-3.238-.3-1.2 0-2.281.121-3.238.3A3.889 3.889 0 0 1 21 9c0-2.219 1.781-4 4-4zm-5.672 2.066A5.997 5.997 0 0 0 19 9c0 1.023.266 1.984.723 2.828-.68.219-1.254.445-1.692.652a4.513 4.513 0 0 1-1.078-.386c-.3-.153-.566-.344-.726-.531-.16-.184-.227-.329-.227-.563a3.977 3.977 0 0 1 3.328-3.934zm11.344 0A3.977 3.977 0 0 1 34 11c0 .234-.066.379-.227.563-.16.187-.425.378-.726.53-.48.247-.902.348-1.078.387a14.257 14.257 0 0 0-1.692-.652A5.919 5.919 0 0 0 31 9c0-.676-.121-1.324-.328-1.934zM25 14c-9.379 0-17 7.621-17 17s7.621 17 17 17 17-7.621 17-17-7.621-17-17-17zm0 2c8.297 0 15 6.703 15 15s-6.703 15-15 15-15-6.703-15-15 6.703-15 15-15zm-6.734 3.855l-.684.477C14.211 22.68 12 26.586 12 31c0 3.066 1.07 5.89 2.848 8.11l1.562-1.25A10.917 10.917 0 0 1 14 31c0-3.45 1.629-6.46 4.11-8.48l1.378 1.382C17.371 25.551 16 28.117 16 31c0 3.906 2.512 7.23 6 8.473V41h2v-1.059c.328.036.66.059 1 .059a8.997 8.997 0 0 0 7.387-3.863l-1.64-1.14A6.98 6.98 0 0 1 25 38c-.34 0-.672-.031-1-.078V36h3v-2h-3v-1h3v-2h-5v6.324A6.982 6.982 0 0 1 18 31a6.976 6.976 0 0 1 2.906-5.676L25 29.414l4.094-4.09a7.096 7.096 0 0 1 1.695 1.738l1.652-1.125a8.99 8.99 0 0 0-1.93-2.03l1.38-1.387C34.37 24.54 36 27.55 36 31c0 2.602-.902 4.977-2.41 6.86l1.562 1.25A12.94 12.94 0 0 0 38 31c0-4.414-2.21-8.32-5.582-10.668l-.684-.477-2.984 2.98A8.933 8.933 0 0 0 25 22c-1.34 0-2.61.305-3.754.832zM25 24c.777 0 1.52.137 2.215.371L25 26.586l-2.223-2.223A6.976 6.976 0 0 1 25 24z" id="surface1"/><metadata><rdf:RDF xmlns:rdf="http://www.w3.org/1999/02/22-rdf-syntax-ns#" xmlns:rdfs="http://www.w3.org/2000/01/rdf-schema#" xmlns:dc="http://purl.org/dc/elements/1.1/"><rdf:Description about="https://iconscout.com/legal#licenses" dc:title="real,madrid" dc:description="real,madrid" dc:publisher="Iconscout" dc:date="2017-12-09" dc:format="image/svg+xml" dc:language="en"><dc:creator><rdf:Bag><rdf:li>Icons8</rdf:li></rdf:Bag></dc:creator></rdf:Description></rdf:RDF></metadata></svg>